<svg width="528" height="273" viewBox="0 0 528 273" fill="none" xmlns="http://www.w3.org/2000/svg">
<path fill-rule="evenodd" clip-rule="evenodd" d="M115.318 3.30629C111.37 3.47721 107.214 3.65713 102.654 3.65713C95.1701 3.65713 87.1167 6.24738 80.0218 9.56454C72.943 12.8742 66.9501 16.845 63.626 19.4648L63.5157 19.5517L63.3912 19.6166C57.3553 22.765 54.1781 24.9024 51.6198 27.1186C49.9659 28.5514 48.5873 29.9947 46.8572 31.8061L46.8546 31.8088L46.8541 31.8095C45.833 32.8787 44.6894 34.0761 43.2945 35.4753C40.1357 38.6439 34.0657 41.7124 28.0076 44.2325C23.1475 46.2543 18.1259 47.9899 14.2481 49.1972C21.1819 54.1994 28.6055 55.7545 31.5807 55.8902L32.0437 55.9113L32.4141 56.19C32.9031 56.5578 33.5896 57.2772 33.8068 58.2811C33.9233 58.8194 33.8976 59.4217 33.6423 60.023C33.3924 60.6118 32.9618 61.1079 32.4141 61.5199L32.4174 61.5176L32.4147 61.5203L32.4144 61.5206C32.4008 61.5339 32.3399 61.5933 32.2352 61.7338C32.1097 61.9022 31.9567 62.1386 31.7804 62.4499C31.428 63.0723 31.0225 63.9228 30.592 64.9736C29.9612 66.5128 29.2964 68.4334 28.6796 70.6049C31.8697 69.8697 34.7267 69.5801 36.8091 69.5744C38.9192 69.404 41.9418 69.6304 44.7793 69.9572C47.657 70.2887 50.4705 70.7393 52.2079 71.0578C56.5479 71.616 61.2533 74.3048 64.8575 78.9531C66.1662 80.6409 67.6935 82.7104 69.0021 84.6984C70.2815 86.6422 71.4504 88.6527 71.9259 90.1791L71.9407 90.2263L71.9522 90.2743C73.1487 95.2464 74.1645 108.242 68.9665 121.478C67.1333 126.145 64.5193 129.577 61.6166 132.137H65.033L60.5652 134.912L50.3326 141.266L49.858 140.501L48.2859 141.321L47.2309 139.299C46.9846 139.366 46.7436 139.431 46.5082 139.494C46.0842 139.606 45.6872 139.71 45.313 139.807C44.7052 139.965 44.1578 140.107 43.6537 140.249C42.8335 140.479 42.2779 140.669 41.9302 140.844C41.2984 141.16 40.5613 141.293 39.8505 141.343C39.1208 141.393 38.3072 141.363 37.4546 141.279C36.7469 141.21 35.9894 141.102 35.1999 140.964L34.8924 141.166C35.8672 143.043 36.9336 144.813 38.0968 146.457C48.6266 161.34 57.6573 166.583 68.2903 172.401C78.8655 178.187 102.507 186.888 122.181 187.369C142.016 187.855 156.339 185.912 172.101 177.289C187.97 168.606 197.533 159.485 206.167 146.493L206.198 146.447L206.231 146.404C211.52 139.584 215.271 130.343 217.803 121.471C220.329 112.616 221.603 104.258 222.001 99.303L222.004 99.267L222.009 99.2313C223.801 85.3384 221.475 75.339 218.016 68.3156C213.234 58.6047 206.2 54.4139 204.47 53.525C204.331 53.4662 204.22 53.4163 204.135 53.3763C204.091 53.3554 204.038 53.3297 203.988 53.3026L203.987 53.3024C203.971 53.2933 203.912 53.2616 203.845 53.2167L203.844 53.2158C203.828 53.2054 203.701 53.1216 203.575 52.9845C203.534 52.9408 203.467 52.8624 203.4 52.7531C203.341 52.6562 203.224 52.4434 203.189 52.1438C203.148 51.7939 203.227 51.3685 203.525 51.0104C203.785 50.6974 204.096 50.5767 204.255 50.5298C204.539 50.4459 204.777 50.4705 204.826 50.4755L204.83 50.4759C204.915 50.4844 204.981 50.4984 205.013 50.5056C205.08 50.5209 205.132 50.5376 205.154 50.5446C205.203 50.5606 205.244 50.5766 205.265 50.585C205.293 50.5962 205.322 50.6082 205.35 50.6204L205.38 50.6333L205.411 50.6475C205.497 50.6862 205.605 50.7376 205.732 50.8015C205.896 50.8698 206.116 50.9576 206.395 51.0636C219.851 54.2525 228.886 54.6809 234.74 53.9002C239.688 53.2402 242.16 51.7537 243.243 50.5361C219.178 43.8572 190.419 27.1916 178.816 19.5389L178.808 19.5336C178.441 19.2878 176.784 18.4108 172.997 16.6677C169.265 14.95 163.556 12.4316 155.185 8.91668C139.346 2.26601 128.491 2.73597 115.318 3.30629ZM40.5853 138.162C40.8431 138.033 41.1301 137.914 41.4364 137.802L41.122 137.065L39.1442 138.367C39.3219 138.366 39.4881 138.361 39.6425 138.35C40.1692 138.313 40.4583 138.226 40.5853 138.162ZM48.7165 128.474L34.5658 137.789C34.1059 137.695 33.6329 137.592 33.1502 137.48C26.8824 122.891 25.3978 103.543 26.1888 87.2767L26.1906 87.2403V87.2039C26.1906 82.7095 26.8719 78.0504 27.8295 73.9098C31.4616 72.9276 34.7148 72.5743 36.8724 72.5743H36.9362L36.9999 72.5689C38.7854 72.4164 41.5773 72.6082 44.4361 72.9375C47.261 73.2629 50.0293 73.7074 51.7063 74.0159L51.7485 74.0236L51.791 74.029C55.2353 74.4608 59.2812 76.6573 62.4867 80.7914C63.7666 82.4421 65.2442 84.4458 66.4963 86.3479C67.7599 88.2676 68.699 89.9444 69.0475 91.0265C70.1203 95.5458 71.0928 107.856 66.1741 120.381C63.8506 126.297 60.1543 129.975 56.2547 132.384L52.5284 133.436L56.6361 131.02L55.6066 128.252L51.0218 129.088L50.6036 128.668L49.7392 127.801L48.7165 128.474ZM240.456 55.645C238.962 56.1774 237.195 56.5993 235.137 56.8738C229.826 57.5821 222.363 57.3465 212.081 55.3596C214.753 57.8137 217.775 61.3294 220.288 66.1613C229.846 66.0941 236.328 61.0772 240.196 55.9918C240.284 55.8761 240.371 55.7605 240.456 55.645ZM221.685 69.1206C224.843 76.5229 226.674 86.4694 224.989 99.5794C224.572 104.729 223.264 113.264 220.687 122.294C218.116 131.309 214.244 140.947 208.636 148.199C199.736 161.576 189.812 171.017 173.54 179.921C157.142 188.893 142.229 190.861 122.108 190.368C101.826 189.872 77.715 180.977 66.8503 175.033C56.0434 169.12 46.5579 163.61 35.6478 148.189C33.8838 145.696 32.345 142.96 31.0074 140.045C26.9073 139.002 22.5734 137.55 19.7814 136.509L19.7392 136.494L19.698 136.475C16.7598 135.175 12.3514 132.395 8.46306 128.22C4.5656 124.035 1.12553 118.375 0.299118 111.329C-1.30074 97.6881 3.89446 87.7931 6.93999 84.3227C11.7505 77.3739 18.9488 73.5198 25.3257 71.5165C26.0894 68.5447 26.971 65.8983 27.816 63.8361C28.2767 62.7116 28.7358 61.7383 29.1698 60.9717C29.5689 60.2671 30.0509 59.5436 30.6106 59.1226C30.7262 59.0357 30.7947 58.9659 30.8335 58.9193L30.8392 58.9124L30.8483 58.9008C30.8537 58.8938 30.8582 58.8876 30.862 58.8821C30.8576 58.8725 30.8517 58.861 30.8442 58.8476C26.6812 58.4979 17.7708 56.2947 10.0739 49.7321L7.94707 47.9188L10.6338 47.1487C14.5682 46.0212 20.847 43.9621 26.8553 41.4626C32.9383 38.9321 38.4816 36.0539 41.1699 33.3572C42.4394 32.0838 43.5373 30.9355 44.5488 29.8776C46.3649 27.978 47.9026 26.3697 49.6554 24.8511C52.4383 22.4404 55.8122 20.1929 61.8801 17.0214C65.3968 14.266 71.5321 10.2221 78.7512 6.8469C86.0307 3.4434 94.5446 0.657135 102.654 0.657135C106.989 0.657135 111.016 0.480873 114.899 0.310924C128.218 -0.27195 139.84 -0.780567 156.347 6.15063C164.738 9.67401 170.48 12.2064 174.252 13.9426C177.96 15.6497 179.861 16.6295 180.472 17.0371C192.294 24.8339 221.879 41.924 245.799 48.1161L247.183 48.4742L246.892 49.8733C246.8 50.318 246.64 50.7607 246.416 51.1927C246.185 51.7589 245.916 52.3556 245.607 52.9736C249.857 50.7249 255.273 47.8899 260.299 45.5229C263.945 43.806 267.452 42.303 270.199 41.4462C271.559 41.0218 272.828 40.7249 273.875 40.6735C274.756 40.6303 276.177 40.7291 276.902 41.922C276.994 41.8934 277.097 41.8596 277.212 41.8219C277.972 41.5722 279.244 41.1545 281.168 40.9867C285.726 40.5891 293.91 41.5493 309.833 48.1836C326.047 54.9397 339.281 69.0129 349.137 82.2768C354.079 88.9275 358.202 95.4167 361.449 100.751C362.615 102.666 363.658 104.414 364.582 105.964L364.598 105.991L364.599 105.993C366.27 108.795 367.552 110.944 368.468 112.246C374.525 120.854 378.464 132.875 380.912 153.007C381.993 161.906 381.301 167.653 379.739 171.885C379.065 173.711 378.231 175.237 377.351 176.578C377.662 176.624 377.975 176.705 378.288 176.827C379.052 177.125 379.733 177.635 380.333 178.326C384.343 179.915 388.374 182.765 392.404 186.034C394.704 187.901 397.106 189.992 399.53 192.103L399.534 192.107C401.433 193.76 403.346 195.426 405.235 197.005C409.331 200.428 417.066 203.177 424.419 204.945C428.054 205.819 431.515 206.434 434.263 206.771C435.638 206.939 436.816 207.035 437.738 207.061C438.715 207.088 439.248 207.03 439.431 206.978L439.743 206.889L440.064 206.936C444.888 207.65 452.484 207.927 460.071 207.399C467.706 206.868 475.076 205.536 479.594 203.18C485.705 199.992 489.578 197.863 492.843 195.114C496.064 192.402 498.758 189.029 502.349 183.275C504.467 178.48 507.122 165.419 500.385 151.902C496.132 143.372 490.978 138.942 486.958 136.58C484.941 135.395 483.186 134.717 481.936 134.306C481.45 134.147 481.049 134.03 480.713 133.932L480.711 133.931L480.708 133.931C480.607 133.901 480.512 133.873 480.422 133.847C480.249 133.795 480.042 133.732 479.87 133.663C479.844 133.653 479.807 133.638 479.764 133.618C479.524 133.637 479.184 133.674 478.742 133.729C478.614 133.744 478.479 133.761 478.338 133.779L477.918 133.832C476.986 133.951 475.843 134.096 474.648 134.214C473.069 134.369 471.333 134.483 469.749 134.426C468.226 134.371 466.6 134.154 465.411 133.472C461.525 131.245 458.322 126.345 458.322 120.441C458.322 116.875 460.82 114.895 463.275 113.763C465.064 112.938 467.18 112.413 468.756 112.022C469.285 111.891 469.754 111.774 470.129 111.667C471.275 111.338 472.897 111.37 474.486 111.508C476.141 111.651 478.002 111.934 479.756 112.243C481.47 112.544 483.11 112.875 484.381 113.132L484.475 113.151C485.122 113.281 485.66 113.389 486.066 113.465C486.167 113.484 486.252 113.499 486.323 113.512C486.445 113.533 486.526 113.546 486.574 113.553L486.575 113.553L486.576 113.553L486.576 113.554C486.633 113.562 486.643 113.564 486.622 113.564C486.975 113.564 487.313 113.686 487.442 113.733L487.45 113.735C487.651 113.808 487.882 113.905 488.126 114.015C488.619 114.238 489.249 114.55 489.965 114.924C491.401 115.675 493.242 116.706 495.144 117.845C497.044 118.983 499.023 120.238 500.727 121.438C502.4 122.614 503.917 123.811 504.807 124.831C505.562 125.697 506.661 126.781 507.998 128.101L508.27 128.37C509.71 129.791 511.364 131.434 513.008 133.238C516.256 136.804 519.583 141.124 521.156 145.803C522.48 148.8 524.319 153.633 525.593 158.529C526.235 160.996 526.742 163.512 526.96 165.836C527.176 168.137 527.121 170.369 526.548 172.208C525.951 174.124 525.667 175.962 525.371 177.877L525.371 177.878L525.371 177.879L525.371 177.88C524.544 183.225 523.624 189.174 515.56 199.101C510.174 205.733 506.429 209.631 502.385 212.673C498.379 215.688 494.129 217.819 487.878 220.954L487.782 221.002C474.864 227.481 462.415 229.973 447.056 228.979C431.877 227.997 423.494 227.007 406.812 222.578C400.41 220.878 396.265 219.475 393.663 218.386C393.273 218.223 392.915 218.065 392.586 217.913C392.996 222.049 392.93 227.15 391.899 232.133C390.571 238.548 387.588 245.001 381.695 248.784C379.181 250.398 377.24 251.776 375.506 253.007L375.505 253.008L375.504 253.008L375.174 253.243C374.947 253.404 374.723 253.563 374.501 253.719C372.512 255.124 370.706 256.35 368.538 257.469C364.196 259.711 358.537 261.453 347.059 263.658L346.934 263.682L346.808 263.685C339.149 263.848 320.757 263.302 308.824 259.711C305.221 258.627 300.519 257.508 295.303 256.267L295.293 256.264C290.1 255.029 284.426 253.679 278.945 252.143C273.465 250.608 268.131 248.874 263.625 246.86C259.445 244.992 255.825 242.817 253.493 240.214C253.477 240.623 253.44 241.074 253.358 241.546C253.054 243.298 252.15 245.265 249.776 246.735C247.487 248.152 243.967 249.022 238.602 249.022C233.283 249.022 229.732 248.258 227.538 246.873C226.409 246.161 225.614 245.267 225.164 244.223C224.935 243.691 224.809 243.151 224.761 242.616C223.947 243.622 223.08 244.622 222.157 245.612C211.478 257.072 198.7 263.91 187.556 267.699C176.793 271.357 167.378 272.228 162.73 271.548L162.685 271.558C162.557 271.588 162.414 271.615 162.263 271.639C162.223 271.645 162.182 271.652 162.141 271.658L162.078 271.667L162.001 271.677C161.499 271.744 160.823 271.805 160.011 271.858C158.382 271.965 156.124 272.044 153.447 272.063C148.092 272.101 141.003 271.902 133.814 271.193C126.642 270.486 119.288 269.264 113.444 267.229C110.522 266.212 107.908 264.967 105.871 263.431C104.432 262.346 103.239 261.082 102.451 259.615C95.0204 264.537 87.3448 265.507 80.6133 265.273C77.1062 265.15 73.8305 264.699 71.0008 264.31L70.9993 264.31L70.9982 264.309L70.7995 264.282C67.8608 263.878 65.5321 263.571 63.766 263.682L63.1845 263.719C59.5614 263.948 56.2605 264.157 52.7784 263.605C49.0663 263.018 45.2206 261.584 40.4549 258.564C32.9146 253.787 23.177 245.032 19.2655 241.272L19.2027 241.211L19.1473 241.144C14.4924 235.492 11.7684 231.509 10.2779 226.439C8.80644 221.433 8.57243 215.475 8.57243 205.976C8.57243 197.969 13.0968 189.813 18.3237 183.007C23.5887 176.152 29.7641 170.414 33.4518 167.208L35.4201 169.472C31.7986 172.621 25.7924 178.208 20.7029 184.835C15.5752 191.511 11.5724 198.997 11.5724 205.976C11.5724 215.539 11.8257 221.067 13.1561 225.593C14.4621 230.035 16.8404 233.618 21.4074 239.169C25.3316 242.935 34.8267 251.447 42.0605 256.03C46.5529 258.876 50.0163 260.131 53.2477 260.642C56.3935 261.141 59.3875 260.952 63.1114 260.717L63.5782 260.688C65.7103 260.554 68.3761 260.92 71.2085 261.31L71.3623 261.331C74.2176 261.724 77.3644 262.157 80.7179 262.274C87.3727 262.507 94.7402 261.488 101.792 256.425C99.3951 254.892 96.0199 252.914 92.6753 251.314C90.7518 250.394 88.8725 249.617 87.2159 249.117C85.5149 248.605 84.228 248.443 83.4084 248.579L82.9173 245.619C84.4365 245.367 86.2681 245.698 88.0816 246.245C89.9394 246.805 91.9705 247.652 93.9695 248.608C97.9697 250.521 101.978 252.935 104.458 254.581L104.121 255.088L104.594 256.924C104.97 258.387 105.984 259.759 107.678 261.036C109.375 262.316 111.672 263.436 114.43 264.396C119.946 266.317 127.027 267.509 134.108 268.207C141.171 268.904 148.152 269.101 153.425 269.063C156.062 269.044 158.259 268.966 159.816 268.865C160.597 268.814 161.198 268.758 161.604 268.704C161.639 268.699 161.672 268.694 161.702 268.69L161.748 268.683L161.795 268.676L162.078 268.392L162.849 268.528C166.643 269.2 175.748 268.544 186.59 264.858C197.373 261.193 209.69 254.59 219.963 243.567C236.24 226.1 233.962 205.634 230.87 197.724L230.804 197.555L230.78 197.376C230.474 195.07 229.568 191.488 227.875 188.331C226.169 185.148 223.821 182.676 220.75 182.027L221.37 179.092C225.706 180.008 228.637 183.401 230.52 186.914C232.373 190.372 233.365 194.217 233.73 196.801C236.353 203.668 238.264 218.287 230.891 233.104L230.913 233.092C231.256 232.9 231.685 232.643 232.181 232.337C232.518 232.13 232.876 231.906 233.251 231.671C233.4 231.577 233.551 231.482 233.705 231.385L234.245 231.044C234.689 230.763 235.148 230.474 235.612 230.182C236.831 229.418 238.079 228.651 239.123 228.072C239.643 227.784 240.139 227.527 240.571 227.338C240.887 227.2 241.363 227.007 241.841 226.967C241.943 226.875 242.089 226.696 242.257 226.412C242.536 225.94 242.771 225.361 242.923 224.9C242.535 221.438 242.487 216.353 242.853 211.405C243.227 206.352 244.049 201.185 245.525 198.012C248.587 191.43 253.551 185.618 258.271 180.089C258.974 179.266 259.672 178.45 260.357 177.637L260.478 177.494L260.63 177.385C264.097 174.901 270.002 171.134 276.49 168.128C282.921 165.149 290.178 162.796 296.254 163.427L295.945 166.411C290.717 165.868 284.086 167.915 277.751 170.85C271.566 173.715 265.903 177.312 262.528 179.716C261.864 180.503 261.196 181.285 260.53 182.066L260.53 182.067C255.786 187.628 251.121 193.097 248.245 199.277C247.018 201.916 246.216 206.605 245.845 211.626C245.477 216.598 245.547 221.641 245.938 224.857L245.975 225.158L245.892 225.449C245.706 226.102 245.345 227.086 244.838 227.941C244.586 228.367 244.258 228.829 243.843 229.201C243.45 229.555 242.862 229.929 242.107 229.958L242.092 229.963C242.053 229.975 241.952 230.008 241.772 230.087C241.465 230.221 241.063 230.426 240.578 230.695C239.611 231.232 238.423 231.961 237.206 232.724C236.763 233.002 236.314 233.286 235.873 233.564C235.12 234.039 234.391 234.5 233.754 234.892C233.246 235.205 232.776 235.487 232.381 235.708C232.05 235.894 231.685 236.088 231.37 236.205C231.354 236.215 231.331 236.23 231.301 236.252C231.237 236.299 231.157 236.361 231.064 236.44C231.005 236.49 230.94 236.546 230.871 236.61C230.512 236.936 230.071 237.396 229.63 237.944C228.721 239.077 227.964 240.404 227.78 241.583C227.692 242.145 227.742 242.624 227.919 243.036C228.094 243.442 228.441 243.896 229.139 244.336C230.599 245.258 233.444 246.022 238.602 246.022C243.713 246.022 246.588 245.181 248.197 244.184C249.721 243.241 250.218 242.092 250.402 241.034C250.499 240.471 250.509 239.918 250.502 239.38C250.501 239.302 250.499 239.218 250.498 239.132C250.496 239.064 250.495 238.994 250.494 238.925C250.492 238.809 250.491 238.694 250.491 238.592C250.492 238.356 250.5 238.04 250.563 237.736C250.618 237.465 250.777 236.882 251.342 236.49C251.956 236.062 252.611 236.152 252.977 236.256C253.346 236.362 253.697 236.554 254.004 236.748C254.329 236.952 254.697 237.217 255.111 237.536L255.251 237.644L255.362 237.782C257.205 240.066 260.502 242.178 264.849 244.121C269.159 246.048 274.332 247.735 279.754 249.254C285.172 250.773 290.793 252.11 295.998 253.348L296.041 253.359C301.209 254.588 305.992 255.726 309.688 256.838C321.08 260.267 338.937 260.841 346.617 260.688C357.955 258.506 363.235 256.831 367.162 254.804C369.136 253.784 370.802 252.659 372.771 251.268C372.911 251.17 373.052 251.07 373.194 250.969L373.44 250.794L373.674 250.629L373.739 250.582L373.757 250.57C375.493 249.337 377.495 247.915 380.074 246.26C385.015 243.087 387.716 237.538 388.961 231.525C390.197 225.557 389.945 219.362 389.183 215.196C389.151 215.071 389.13 214.929 389.13 214.774L391.525 214.55L391.527 214.55L392.062 214.363C391.973 214.109 391.843 214.022 391.929 214.101C391.985 214.153 392.112 214.256 392.349 214.405C392.821 214.703 393.605 215.11 394.821 215.619C397.247 216.634 401.248 217.996 407.582 219.678C424.034 224.047 432.218 225.012 447.25 225.985C462.101 226.946 474.016 224.55 486.437 218.321C492.802 215.128 496.813 213.112 500.582 210.276C504.335 207.453 507.899 203.775 513.232 197.21C520.752 187.953 521.519 182.964 522.314 177.792L522.314 177.791C522.628 175.752 522.946 173.684 523.684 171.316C524.085 170.026 524.173 168.251 523.973 166.116C523.775 164.005 523.307 161.657 522.69 159.285C521.455 154.539 519.658 149.827 518.385 146.953L518.355 146.887L518.333 146.819C516.973 142.727 513.982 138.763 510.79 135.259C509.205 133.519 507.601 131.924 506.163 130.504L505.853 130.199C504.557 128.92 503.379 127.758 502.546 126.803C501.914 126.078 500.66 125.058 499.001 123.891C497.375 122.748 495.463 121.533 493.602 120.419C491.743 119.305 489.952 118.303 488.575 117.583C487.884 117.222 487.311 116.939 486.893 116.75C486.682 116.655 486.53 116.593 486.431 116.557L486.423 116.554C486.146 116.531 485.801 116.468 485.516 116.414C485.083 116.334 484.521 116.22 483.881 116.091L483.798 116.075L483.797 116.074L483.794 116.074C482.518 115.816 480.912 115.492 479.236 115.197C477.517 114.895 475.754 114.628 474.227 114.496C472.633 114.359 471.514 114.391 470.955 114.551C470.404 114.709 469.814 114.855 469.204 115.007L469.201 115.008L469.198 115.008C467.683 115.384 466.039 115.792 464.531 116.487C462.479 117.433 461.322 118.63 461.322 120.441C461.322 125.289 463.966 129.187 466.903 130.87C467.418 131.165 468.411 131.376 469.857 131.428C471.244 131.478 472.827 131.378 474.354 131.228C475.502 131.115 476.581 130.978 477.507 130.86C477.815 130.821 478.106 130.784 478.376 130.751C478.9 130.687 479.381 130.633 479.739 130.613C479.904 130.604 480.128 130.597 480.343 130.622C480.434 130.633 480.66 130.664 480.905 130.781C480.967 130.811 481.058 130.861 481.158 130.935L481.207 130.95L481.276 130.971C481.34 130.99 481.413 131.011 481.494 131.035L481.496 131.035L481.506 131.038L481.522 131.043L481.522 131.043C481.862 131.142 482.33 131.278 482.872 131.456C484.271 131.916 486.232 132.674 488.478 133.994C492.985 136.642 498.551 141.499 503.07 150.564C510.323 165.116 507.467 179.215 505.044 184.597L505.003 184.689L504.949 184.774C501.259 190.698 498.359 194.392 494.775 197.409C491.218 200.403 487.052 202.673 480.981 205.84C475.883 208.499 467.985 209.856 460.279 210.392C452.667 210.922 444.992 210.666 439.905 209.944C439.275 210.063 438.48 210.083 437.654 210.06C436.61 210.03 435.333 209.924 433.898 209.748C431.027 209.397 427.453 208.76 423.718 207.862C416.332 206.086 407.986 203.215 403.311 199.306C401.294 197.621 399.363 195.937 397.473 194.29C395.117 192.236 392.825 190.239 390.514 188.364C386.403 185.03 382.555 182.363 378.894 180.986L378.493 180.835L378.232 180.495C377.824 179.963 377.467 179.727 377.198 179.622C376.938 179.521 376.659 179.502 376.328 179.577C375.61 179.74 374.749 180.322 373.871 181.21C373.345 181.9 372.858 182.581 372.418 183.299C371.893 184.155 371.481 184.766 371.2 185.056C371.154 185.102 371.073 185.182 370.965 185.262L370.961 185.265C370.909 185.304 370.569 185.559 370.069 185.566C369.724 185.57 369.31 185.453 368.981 185.124C368.688 184.832 368.595 184.504 368.562 184.33C368.504 184.018 368.559 183.762 368.573 183.699L368.574 183.696C368.637 183.406 368.788 183.11 368.87 182.954C369.289 182.146 370.291 180.6 371.596 179.245C371.916 178.828 372.235 178.423 372.551 178.021L372.557 178.013C374.22 175.902 375.799 173.897 376.925 170.846C378.268 167.206 378.98 161.975 377.934 153.369C375.508 133.422 371.651 121.982 366.014 113.972C365.034 112.579 363.651 110.261 361.92 107.36L361.92 107.359C361.004 105.823 359.99 104.123 358.887 102.311C355.662 97.0146 351.593 90.6123 346.729 84.0661C336.972 70.9362 324.137 57.3936 308.679 50.9529C292.929 44.3903 285.277 43.6397 281.429 43.9753C279.876 44.1108 278.94 44.4156 278.181 44.6625L278.18 44.6627C278.007 44.7189 277.844 44.7722 277.684 44.8197C277.307 44.9321 276.597 45.1367 275.849 44.8781C275.17 44.6431 274.745 44.1367 274.457 43.6783C274.373 43.6676 274.235 43.6595 274.022 43.6699C273.357 43.7025 272.375 43.9097 271.092 44.3101C268.551 45.1029 265.197 46.5326 261.577 48.237C255.913 50.9045 249.762 54.1657 245.323 56.5193L245.311 56.526L245.27 56.5474C244.194 57.1181 243.219 57.6348 242.378 58.0759C238.272 63.3547 231.492 68.6047 221.685 69.1206ZM391.527 214.55L392.1 214.497C392.088 214.446 392.075 214.402 392.062 214.364L391.527 214.55ZM274.567 43.7022C274.566 43.7027 274.56 43.7008 274.548 43.6953C274.562 43.6991 274.567 43.7018 274.567 43.7022ZM486.352 116.532C486.345 116.53 486.35 116.53 486.372 116.537C486.362 116.535 486.356 116.533 486.352 116.532ZM24.5311 74.9516C19.0149 76.955 13.2636 80.42 9.35942 86.0986L9.30583 86.1766L9.24284 86.2472C6.75639 89.0347 1.77129 98.1262 3.27873 110.979C4.01152 117.227 7.06841 122.32 10.6585 126.176C12.2088 127.84 13.8464 129.261 15.4148 130.43L14.3892 128.896L21.6983 124.008L22.81 125.671L15.547 130.528C17.5522 132.008 19.4368 133.075 20.8718 133.714C23.09 134.539 26.2868 135.624 29.5256 136.54C23.7364 121.653 22.4312 102.853 23.1906 87.1672C23.1938 83.0289 23.7374 78.8044 24.5311 74.9516ZM94.6922 107.128C84.73 102.317 77.917 105.832 75.9416 107.814L73.817 105.696C76.7143 102.79 84.9092 99.0715 95.9969 104.427L94.6922 107.128ZM92.8896 212.873C101.046 209.951 112.573 209.845 123.515 212.838C129.216 214.398 134.178 218.13 137.766 221.357C139.491 222.909 140.931 224.374 141.996 225.458L142.141 225.606C142.691 226.164 143.107 226.585 143.413 226.866C143.569 227.01 143.659 227.082 143.699 227.11C143.709 227.117 143.708 227.116 143.697 227.109C143.685 227.102 143.664 227.089 143.632 227.075C143.594 227.056 143.394 226.96 143.097 226.96V229.96C142.74 229.96 142.464 229.841 142.336 229.78C142.186 229.708 142.057 229.624 141.961 229.555C141.767 229.417 141.568 229.245 141.383 229.075C141.009 228.731 140.534 228.25 140.002 227.709L139.866 227.57L139.865 227.569C138.798 226.484 137.415 225.076 135.759 223.587C132.282 220.46 127.742 217.105 122.723 215.732C112.225 212.86 101.347 213.03 93.9014 215.697L93.496 215.842L93.1724 215.958L92.8951 216.057L92.3237 216.26L92.3229 216.261L92.3205 216.261C89.8674 217.135 88.3857 217.663 86.7697 218.399C84.8404 219.279 82.7101 220.463 78.5652 222.909L78.1243 223.169L77.6163 223.105C75.4931 222.839 69.3596 223.58 63.8669 229.406C62.3498 231.606 61.9722 233.165 61.8769 234.216C61.8315 234.717 61.8465 235.129 61.8617 235.547V235.548L61.8669 235.694C61.8744 235.912 61.882 236.185 61.8613 236.449C61.8404 236.716 61.7848 237.075 61.6037 237.438C61.4303 237.786 61.2843 237.991 61.1592 238.167C60.9322 238.485 60.7742 238.707 60.6462 239.51C60.4514 240.731 60.5124 243.057 61.7121 247.63C61.9591 248.571 62.3414 249.19 62.7657 249.607C63.1904 250.024 63.7276 250.308 64.3903 250.472C65.7692 250.814 67.5815 250.606 69.5353 250.05C71.4526 249.505 73.3251 248.678 74.735 247.974C75.4356 247.625 76.0124 247.311 76.4119 247.085C76.5734 246.994 76.7057 246.917 76.8049 246.859C76.8391 246.806 76.8876 246.727 76.9524 246.611C77.0213 246.487 77.0943 246.349 77.1821 246.183C77.2673 246.022 77.3641 245.839 77.4694 245.647C77.8918 244.879 78.4933 243.898 79.4433 243.02C81.4412 241.174 84.5903 240.12 89.7924 241.163C92.1492 241.636 94.1247 241.844 95.8996 241.978C96.454 242.02 97.0034 242.056 97.5454 242.091C98.6993 242.166 99.8198 242.239 100.884 242.367C104.186 242.764 107.238 243.717 111.352 246.812C115.325 249.801 117.725 252.198 119.149 253.886C119.861 254.731 120.33 255.398 120.628 255.874C120.778 256.111 120.884 256.301 120.958 256.441C120.994 256.511 121.023 256.568 121.044 256.613C121.055 256.635 121.064 256.654 121.071 256.67L121.08 256.691L121.084 256.7L121.086 256.704L121.087 256.706C121.087 256.707 121.087 256.708 119.708 257.297C118.329 257.887 118.329 257.887 118.329 257.888L118.33 257.89L118.331 257.893L118.334 257.898L118.335 257.902C118.333 257.897 118.327 257.885 118.318 257.867L118.302 257.837C118.291 257.816 118.278 257.791 118.262 257.762L118.233 257.711C118.219 257.686 118.204 257.66 118.187 257.631C118.175 257.612 118.163 257.591 118.15 257.57C118.131 257.538 118.11 257.504 118.087 257.469C117.868 257.119 117.484 256.565 116.856 255.821C115.6 254.332 113.371 252.086 109.548 249.209C105.865 246.438 103.314 245.681 100.525 245.345C99.5426 245.227 98.5599 245.163 97.4582 245.092C96.8988 245.056 96.3089 245.018 95.6727 244.97C93.8237 244.83 91.7183 244.61 89.2023 244.105C84.6591 243.193 82.5821 244.204 81.4796 245.223C80.8794 245.778 80.4623 246.43 80.0983 247.093C80.048 247.184 79.9995 247.274 79.9515 247.364C79.917 247.429 79.8828 247.494 79.8484 247.559L79.8376 247.579L79.8346 247.585L79.8343 247.585C79.7499 247.745 79.6606 247.914 79.5723 248.072C79.411 248.362 79.1794 248.754 78.8652 249.07L78.7398 249.195L78.5885 249.288L77.8029 248.011C78.5885 249.288 78.5881 249.289 78.5877 249.289L78.5865 249.29L78.5832 249.292L78.5723 249.298L78.5343 249.321L78.469 249.36L78.396 249.404C78.2768 249.474 78.1046 249.575 77.8863 249.698C77.4502 249.944 76.8279 250.283 76.0743 250.659C74.5759 251.406 72.5197 252.32 70.3561 252.936C68.2289 253.541 65.8082 253.914 63.6695 253.384C62.5735 253.113 61.5309 252.599 60.6633 251.747C59.7952 250.894 59.1724 249.771 58.8103 248.391C57.5737 243.677 57.391 240.872 57.6836 239.037C57.9344 237.465 58.6819 236.407 58.8736 236.157C58.876 236.081 58.8747 235.971 58.8687 235.797L58.8636 235.659C58.8479 235.243 58.8255 234.647 58.8891 233.945C59.0363 232.321 59.6244 230.242 61.4675 227.601L61.5287 227.513L61.6017 227.435C67.4502 221.178 74.1546 219.877 77.457 220.08C81.3327 217.797 83.5056 216.59 85.5251 215.67C87.2683 214.875 88.8908 214.297 91.3472 213.423C91.8271 213.252 92.3389 213.07 92.8896 212.873ZM41.4117 97.7466L58.9534 83.0834L57.6707 81.5489L40.129 96.2121L41.4117 97.7466ZM16.0336 125.15L23.8299 119.285L22.6275 117.686L14.8312 123.552L16.0336 125.15ZM91.9336 130.705C91.9336 132.324 90.8429 133.637 89.4973 133.637C88.1517 133.637 87.061 132.324 87.061 130.705C87.061 129.085 88.1517 127.772 89.4973 127.772C90.8429 127.772 91.9336 129.085 91.9336 130.705ZM82.1883 134.126C81.2137 133.149 78.485 131.194 75.3665 131.194C71.4684 131.194 68.3559 133.527 67.5702 135.104C66.5956 137.059 66.5956 137.548 67.5702 139.991C68.2199 141.458 70.2989 144.293 73.4174 143.902C77.3156 143.413 80.7265 140.48 80.7265 139.503C81.701 139.014 82.6755 136.081 82.1883 134.126ZM49.3434 131.653L46.8531 133.293L49.4534 131.764L49.3434 131.653ZM112.849 130.767L113.815 131.737L114.691 132.615H115.81L116.518 135.728L124.357 132.746L125.779 136.484L120.73 138.405C121.063 138.547 121.397 138.686 121.729 138.821C124.103 139.785 126.407 140.571 128.278 141.179C128.876 141.373 129.441 141.553 129.953 141.715L129.961 141.718L129.97 141.721C131.01 142.051 131.827 142.31 132.262 142.485C133.355 142.923 138.121 144.132 143.611 144.616C146.341 144.857 149.209 144.914 151.856 144.619C154.513 144.322 156.874 143.676 158.646 142.566C166.304 137.764 171.425 131.612 172.814 124.644C173.549 120.961 173.902 119.185 174.078 117.293C174.256 115.395 174.257 113.372 174.257 109.199C174.257 105.128 173.78 101.582 172.488 97.9897C171.815 96.1156 170.914 94.2153 169.73 92.2108L161.277 99.2157L160.001 97.6757L168.665 90.4963C167.802 89.1726 166.818 87.7974 165.696 86.3503C163.094 82.9946 159.178 80.3063 155.273 78.3061C151.38 76.3115 147.582 75.0435 145.301 74.4908C142.628 73.8602 137.92 73.2339 132.587 73.4421C127.249 73.6505 121.358 74.6921 116.271 77.338C111.297 79.9252 107.724 84.9834 105.283 90.4006C102.85 95.8012 101.607 101.417 101.211 104.912L101.209 104.926L101.207 104.939C101.08 105.841 101.08 106.145 101.113 107.149L101.122 107.408V107.41C101.158 108.465 101.216 110.169 101.217 113.488C102.172 117.772 103.117 120.467 104.393 122.91C105.577 125.179 107.057 127.252 109.168 130.211L109.227 130.294C109.414 130.556 109.606 130.825 109.803 131.102C109.981 131.353 110.177 131.601 110.389 131.847L111.595 131.317L112.849 130.767ZM96.0026 138.16L108.487 132.681C108.378 132.543 108.274 132.403 108.174 132.262L107.832 131.783L107.521 131.347C105.435 128.424 103.872 126.235 102.62 123.836C101.226 121.167 100.227 118.266 99.241 113.814L99.2173 113.707V113.598C99.2173 110.237 99.1592 108.531 99.1232 107.474L99.1144 107.216C99.079 106.147 99.0784 105.718 99.2251 104.674C99.643 100.999 100.934 95.1854 103.459 89.5791C105.981 83.9826 109.798 78.4507 115.348 75.5636C120.786 72.7352 126.997 71.6588 132.509 71.4436C138.023 71.2283 142.913 71.8723 145.763 72.5449L145.769 72.5462C148.198 73.1344 152.146 74.4566 156.185 76.5261C160.216 78.591 164.421 81.4421 167.276 85.1248C168.373 86.5392 169.349 87.8958 170.214 89.2121L171.208 88.389L172.484 89.9289L171.289 90.9193C171.894 91.9276 172.434 92.9158 172.914 93.8923L194.835 84.3321L195.635 86.1654L173.745 95.7119C173.971 96.2471 174.179 96.7803 174.371 97.3131C175.759 101.174 176.257 104.96 176.257 109.199V109.265C176.257 113.357 176.257 115.477 176.07 117.479C175.882 119.486 175.507 121.366 174.788 124.975L174.776 125.035C173.241 132.73 167.642 139.286 159.708 144.26C157.581 145.594 154.887 146.292 152.078 146.606C149.258 146.921 146.248 146.857 143.435 146.609C137.84 146.115 132.861 144.88 131.517 144.341C131.152 144.194 130.462 143.975 129.501 143.671L129.5 143.67L129.498 143.67C128.966 143.501 128.35 143.305 127.66 143.081C125.769 142.467 123.414 141.664 120.976 140.674C120.018 140.284 119.044 139.865 118.078 139.415L111.648 141.861L108.937 142.892V141.041L105.054 141.94L104.025 139.008L97.61 141.823L96.0026 138.16ZM63.3603 85.02L55.0767 92.3516L53.7511 90.854L62.0347 83.5224L63.3603 85.02ZM78.5806 159.339L76.3411 149.615L79.2646 148.942L81.3202 157.867C82.9582 158.029 84.4736 158.609 85.8272 159.208C86.3299 159.43 86.8042 159.651 87.2602 159.863C88.4396 160.412 89.4975 160.904 90.6125 161.22C91.5813 161.495 92.5215 161.807 93.3846 162.096L93.5712 162.159C94.3728 162.428 95.093 162.669 95.7497 162.858C96.4643 163.063 97.0174 163.18 97.4348 163.208C97.8029 163.232 97.9267 163.178 97.9343 163.175L98.3045 162.93H98.3068C98.3655 162.859 98.4358 162.767 98.5163 162.652C98.8389 162.192 99.2048 161.543 99.5095 160.875C99.8233 160.187 100.017 159.6 100.072 159.25C100.082 159.184 100.084 159.147 100.085 159.133C100.084 159.128 100.084 159.126 100.085 159.126C100.085 159.126 100.085 159.128 100.085 159.133C100.085 159.153 100.092 159.219 100.125 159.313C100.17 159.441 100.278 159.656 100.515 159.833C100.761 160.016 101.018 160.065 101.192 160.065V157.065C101.546 157.065 101.949 157.16 102.31 157.429C102.662 157.692 102.855 158.032 102.956 158.32C103.137 158.838 103.09 159.369 103.036 159.713C102.919 160.463 102.594 161.342 102.239 162.12C101.874 162.919 101.421 163.735 100.972 164.376C100.75 164.691 100.498 165.009 100.228 165.266C100.093 165.394 99.9196 165.54 99.7117 165.661C99.612 165.719 99.4758 165.788 99.309 165.842C98.6234 166.195 97.8732 166.244 97.2351 166.201C96.4957 166.152 95.699 165.965 94.9211 165.741C94.1979 165.533 93.4159 165.271 92.6325 165.008L92.4312 164.941C91.5669 164.651 90.6875 164.359 89.7947 164.106C88.4292 163.72 87.0471 163.076 85.7995 162.495C85.388 162.303 84.9911 162.118 84.6142 161.952C83.4197 161.424 82.341 161.031 81.2997 160.885C81.1307 161.491 80.8691 162.205 80.431 162.886C79.5616 164.238 78.0957 165.365 75.6894 165.895C74.7044 166.112 74.0243 166.353 73.4894 166.563C73.3952 166.6 73.2945 166.641 73.1891 166.684C72.7792 166.851 72.2983 167.047 71.8562 167.145C70.385 167.471 69.1442 166.868 67.2673 165.705L67.1224 165.615L67.0013 165.495C66.3103 164.81 65.9313 164.043 65.8785 163.223C65.8291 162.455 66.0849 161.837 66.237 161.5C66.2919 161.379 66.3207 161.319 66.3403 161.278C66.3567 161.244 66.3667 161.223 66.3804 161.191C66.393 161.151 66.3999 161.143 66.3856 161.178L66.3804 161.191C66.3563 161.268 66.3114 161.464 66.3526 161.712C66.393 161.955 66.5069 162.203 66.7003 162.405C66.8768 162.589 67.0582 162.67 67.1497 162.704L67.1503 162.704V159.735C67.4295 159.735 67.8111 159.752 68.1743 159.884C68.3732 159.956 68.6335 160.086 68.8652 160.328C69.1138 160.587 69.2592 160.902 69.3121 161.22C69.3978 161.737 69.2202 162.172 69.1678 162.3L69.1644 162.309C69.134 162.383 69.084 162.493 69.042 162.583L68.9985 162.676L68.9707 162.736C68.8694 162.96 68.8718 163.021 68.8724 163.031C68.8724 163.032 68.8727 163.035 68.8741 163.04C68.8756 163.046 68.8797 163.06 68.891 163.082L68.8957 163.092L68.8998 163.099C68.9092 163.116 68.9223 163.138 68.9405 163.164C68.9588 163.191 68.9823 163.221 69.0124 163.257C70.7576 164.323 71.0487 164.254 71.1912 164.22L71.2077 164.216C71.3823 164.177 71.5418 164.113 71.8638 163.982C72.0044 163.925 72.1759 163.856 72.3932 163.771C73.0336 163.519 73.8675 163.225 75.0437 162.965C76.7632 162.586 77.5129 161.877 77.9076 161.263C78.2975 160.657 78.4305 160.038 78.5796 159.343L78.5806 159.339ZM162.917 165.863C166.776 164.517 175.903 159.859 181.905 151.832L180.303 150.634C174.61 158.248 165.87 162.715 162.258 163.975L162.917 165.863ZM140.221 105.156L162.635 90.9817L161.566 89.2913L139.152 103.466L140.221 105.156ZM120.985 112.898C116.774 110.512 114.261 112.062 113.646 112.781L112.126 111.482C113.452 109.93 117.118 108.317 122.162 111.268L122.337 111.37L122.458 111.533C123.115 112.412 124.285 113.501 125.612 113.976C126.259 114.207 126.921 114.285 127.581 114.149C128.236 114.013 128.962 113.652 129.72 112.892L131.136 114.304C130.14 115.303 129.075 115.882 127.985 116.107C126.9 116.332 125.862 116.189 124.938 115.859C123.216 115.243 121.812 113.948 120.985 112.898ZM59.9125 112.329C58.6095 111.283 56.4307 110.008 54.0991 109.629C52.9204 109.438 51.6633 109.47 50.4563 109.917C49.2373 110.368 48.1348 111.219 47.2466 112.555C46.4434 113.764 45.4217 114.168 44.5968 114.126C43.759 114.084 43.0124 113.588 42.6738 112.738L40.816 113.479C41.452 115.074 42.8981 116.044 44.4966 116.124C46.108 116.205 47.7663 115.387 48.9123 113.662C49.5834 112.653 50.3568 112.086 51.1508 111.792C51.9568 111.494 52.8498 111.452 53.7786 111.603C55.6619 111.909 57.5273 112.979 58.6608 113.889L59.9125 112.329Z" transform="translate(527.076) scale(-1 1)" fill="#2C2C34"/>
</svg>
