<svg width="528" height="273" viewBox="0 0 528 273" fill="none" xmlns="http://www.w3.org/2000/svg">
<path fill-rule="evenodd" clip-rule="evenodd" d="M115.318 3.30629C111.37 3.47721 107.214 3.65713 102.654 3.65713C95.1701 3.65713 87.1167 6.24738 80.0218 9.56454C72.943 12.8742 66.9501 16.845 63.626 19.4648L63.5158 19.5517L63.3913 19.6166C57.3553 22.765 54.178 24.9024 51.6198 27.1186C49.9661 28.5513 48.5876 29.9945 46.8577 31.8057L46.8548 31.8088L46.8541 31.8095L46.8511 31.8126C45.8307 32.881 44.688 34.0774 43.2945 35.4753C40.1357 38.6439 34.0657 41.7124 28.0076 44.2325C23.1475 46.2543 18.1259 47.9899 14.2481 49.1972C21.1819 54.1994 28.6055 55.7545 31.5807 55.8902L32.0437 55.9113L32.4141 56.19C32.9031 56.5578 33.5896 57.2772 33.8068 58.2811C33.9233 58.8194 33.8976 59.4216 33.6423 60.023C33.3924 60.6119 32.9618 61.1079 32.4141 61.5199L32.4174 61.5176L32.4147 61.5203C32.4018 61.5329 32.3409 61.5921 32.2352 61.7338C32.1097 61.9022 31.9567 62.1386 31.7804 62.4499C31.428 63.0723 31.0225 63.9228 30.592 64.9736C29.9612 66.5128 29.2964 68.4334 28.6796 70.6049C31.8697 69.8697 34.7267 69.5801 36.8091 69.5744C38.9192 69.404 41.9417 69.6304 44.7793 69.9572C47.657 70.2887 50.4705 70.7393 52.2079 71.0578C56.5479 71.616 61.2533 74.3048 64.8575 78.9531C66.1662 80.6409 67.6935 82.7104 69.0021 84.6984C70.2815 86.6422 71.4505 88.6527 71.9259 90.1791L71.9407 90.2263L71.9522 90.2743C73.1487 95.2464 74.1645 108.242 68.9665 121.478C67.1333 126.145 64.5192 129.577 61.6165 132.137H65.033L60.5652 134.912L50.3326 141.266L49.858 140.501L48.2859 141.321L47.2309 139.299L46.9344 139.379L46.7723 139.423L46.5082 139.494C46.089 139.605 45.6962 139.707 45.3259 139.804L45.3196 139.805L45.313 139.807C44.7052 139.965 44.1578 140.107 43.6537 140.249C42.8335 140.479 42.2779 140.669 41.9302 140.843C41.2984 141.16 40.5613 141.293 39.8505 141.343C39.1208 141.393 38.3072 141.363 37.4546 141.279C36.7469 141.21 35.9894 141.102 35.1999 140.964L34.8924 141.166C35.8672 143.043 36.9336 144.813 38.0968 146.457C48.6266 161.34 57.6573 166.583 68.2902 172.401C78.8655 178.187 102.507 186.888 122.181 187.369C142.016 187.855 156.339 185.912 172.101 177.289C187.97 168.606 197.533 159.485 206.167 146.493L206.198 146.447L206.231 146.404C211.52 139.584 215.271 130.343 217.803 121.471C220.329 112.616 221.603 104.258 222.001 99.303L222.004 99.267L222.009 99.2313C223.801 85.3384 221.475 75.339 218.016 68.3156C213.234 58.6047 206.2 54.4139 204.47 53.525C204.331 53.4662 204.22 53.4163 204.135 53.3763C204.091 53.3554 204.038 53.3297 203.988 53.3026C203.972 53.2938 203.912 53.262 203.845 53.2167L203.843 53.2156C203.826 53.2044 203.7 53.1207 203.575 52.9845C203.554 52.9615 203.525 52.9289 203.493 52.8873C203.477 52.8669 203.46 52.8442 203.443 52.8194C203.429 52.7988 203.414 52.7767 203.4 52.7531C203.341 52.6562 203.224 52.4434 203.189 52.1438C203.148 51.7939 203.227 51.3685 203.525 51.0104C203.785 50.6974 204.096 50.5767 204.255 50.5298C204.539 50.4459 204.777 50.4705 204.826 50.4755L204.83 50.4759C204.914 50.4844 204.981 50.4984 205.013 50.5056C205.08 50.5208 205.132 50.5376 205.154 50.5446C205.203 50.5606 205.244 50.5766 205.265 50.585C205.293 50.5962 205.322 50.6082 205.35 50.6204L205.376 50.6317L205.411 50.6475C205.497 50.6862 205.605 50.7376 205.732 50.8015C205.896 50.8698 206.116 50.9576 206.395 51.0636C219.851 54.2525 228.886 54.6809 234.74 53.9002C239.688 53.2403 242.16 51.7537 243.243 50.5361C219.178 43.8572 190.419 27.1916 178.816 19.5389L178.808 19.5336C178.441 19.2878 176.784 18.4108 172.997 16.6677C169.265 14.95 163.556 12.4316 155.185 8.91668C139.346 2.26601 128.491 2.73597 115.318 3.30629ZM40.5853 138.162C40.8431 138.033 41.1302 137.914 41.4364 137.802L41.122 137.065L39.1442 138.367C39.222 138.367 39.2974 138.366 39.3707 138.363C39.465 138.36 39.5556 138.356 39.6425 138.35C40.1692 138.313 40.4583 138.226 40.5853 138.162ZM48.7165 128.474L34.5658 137.789C34.1059 137.695 33.6329 137.592 33.1502 137.48C26.8824 122.891 25.3978 103.543 26.1888 87.2767L26.1906 87.2403V87.2038C26.1906 82.7095 26.8719 78.0504 27.8295 73.9098C31.4616 72.9276 34.7148 72.5743 36.8724 72.5743H36.9362L36.9999 72.5689C38.7854 72.4164 41.5773 72.6082 44.4361 72.9375C47.261 73.2629 50.0293 73.7074 51.7062 74.0159L51.7485 74.0236L51.7911 74.029C55.2353 74.4608 59.2812 76.6573 62.4867 80.7914C63.7666 82.4421 65.2442 84.4458 66.4963 86.3479C67.7598 88.2676 68.699 89.9444 69.0475 91.0265C70.1203 95.5458 71.0928 107.856 66.1741 120.381C63.8506 126.297 60.1543 129.975 56.2547 132.384L52.5285 133.436L56.6362 131.02L55.6066 128.252L51.0218 129.088L50.6036 128.668L49.7392 127.801L48.7165 128.474ZM240.456 55.645C238.962 56.1774 237.195 56.5993 235.137 56.8738C229.826 57.5821 222.363 57.3465 212.081 55.3596C214.753 57.8137 217.775 61.3294 220.288 66.1613C229.846 66.0941 236.328 61.0772 240.196 55.9917C240.284 55.8761 240.371 55.7605 240.456 55.645ZM221.685 69.1206C224.843 76.5229 226.674 86.4694 224.989 99.5794C224.572 104.729 223.264 113.264 220.687 122.294C218.116 131.309 214.244 140.947 208.636 148.199C199.736 161.576 189.812 171.017 173.54 179.921C157.142 188.893 142.229 190.861 122.108 190.368C101.826 189.872 77.7149 180.977 66.8503 175.033C56.0434 169.12 46.5579 163.61 35.6478 148.189C33.8838 145.696 32.345 142.96 31.0074 140.045C26.9073 139.002 22.5734 137.55 19.7814 136.509L19.7392 136.494L19.698 136.475C16.7598 135.175 12.3514 132.395 8.46306 128.22C4.5656 124.035 1.12553 118.375 0.299118 111.329C-1.30074 97.6881 3.89446 87.7931 6.93999 84.3227C11.7505 77.3739 18.9488 73.5198 25.3257 71.5165C26.0894 68.5447 26.971 65.8983 27.816 63.8361C28.2767 62.7116 28.7358 61.7383 29.1698 60.9717C29.5689 60.2671 30.0509 59.5436 30.6106 59.1226C30.7262 59.0356 30.7947 58.9659 30.8335 58.9193C30.8412 58.91 30.8478 58.9016 30.8533 58.8942L30.862 58.8821L30.8528 58.8635L30.8442 58.8476C26.6812 58.4979 17.7708 56.2947 10.0739 49.7321L7.94707 47.9188L10.6338 47.1487C14.5682 46.0212 20.847 43.9621 26.8553 41.4627C32.9383 38.9321 38.4816 36.0539 41.17 33.3572C42.4394 32.0838 43.5373 30.9355 44.5488 29.8776C46.3649 27.978 47.9026 26.3697 49.6554 24.8511C52.4383 22.4404 55.8122 20.1929 61.8801 17.0214C65.3968 14.266 71.5322 10.2221 78.7511 6.8469C86.0308 3.4434 94.5446 0.657135 102.654 0.657135C106.989 0.657135 111.016 0.480873 114.899 0.310924C128.218 -0.27195 139.84 -0.780567 156.347 6.15063C164.738 9.67401 170.48 12.2064 174.252 13.9426C177.96 15.6497 179.861 16.6295 180.472 17.0371C192.294 24.8339 221.879 41.924 245.799 48.1161L247.183 48.4742L246.892 49.8733C246.8 50.318 246.64 50.7607 246.416 51.1927C246.185 51.7589 245.916 52.3556 245.607 52.9736C249.857 50.7249 255.273 47.8899 260.299 45.5229C263.945 43.806 267.452 42.303 270.199 41.4462C271.559 41.0218 272.828 40.7249 273.875 40.6735C274.756 40.6303 276.177 40.7291 276.902 41.922L276.967 41.9015C277.008 41.8885 277.051 41.8746 277.096 41.86L277.212 41.8219C277.972 41.5722 279.244 41.1545 281.168 40.9867C285.726 40.5891 293.91 41.5493 309.833 48.1836C326.047 54.9397 339.281 69.0129 349.137 82.2768C354.079 88.9275 358.202 95.4167 361.449 100.751C362.617 102.67 363.662 104.421 364.587 105.973L364.598 105.99L364.601 105.996L364.602 105.998C366.272 108.798 367.552 110.945 368.468 112.246C374.525 120.854 378.464 132.875 380.912 153.007C381.993 161.906 381.301 167.653 379.739 171.885C379.065 173.711 378.231 175.237 377.351 176.578C377.662 176.624 377.975 176.705 378.288 176.827C379.052 177.125 379.733 177.635 380.333 178.326C384.343 179.915 388.374 182.765 392.404 186.034C394.704 187.901 397.106 189.992 399.53 192.103C401.431 193.758 403.345 195.424 405.235 197.005C409.331 200.428 417.066 203.177 424.419 204.945C428.054 205.819 431.515 206.434 434.263 206.771C435.638 206.939 436.816 207.035 437.738 207.061C438.715 207.088 439.248 207.03 439.431 206.978L439.743 206.889L440.064 206.936C444.888 207.65 452.484 207.927 460.071 207.399C467.706 206.868 475.076 205.536 479.594 203.18C485.705 199.992 489.578 197.863 492.843 195.114C496.064 192.402 498.758 189.029 502.349 183.275C504.467 178.48 507.122 165.419 500.385 151.902C496.132 143.372 490.978 138.942 486.958 136.58C484.941 135.395 483.186 134.717 481.936 134.306C481.447 134.146 481.045 134.029 480.708 133.931C480.607 133.901 480.512 133.873 480.422 133.847C480.249 133.795 480.042 133.733 479.871 133.663L479.829 133.646C479.809 133.638 479.788 133.629 479.764 133.618C479.524 133.637 479.184 133.674 478.742 133.729C478.492 133.759 478.216 133.794 477.918 133.832C476.986 133.951 475.843 134.096 474.648 134.214C473.069 134.369 471.333 134.483 469.749 134.426C468.226 134.371 466.6 134.154 465.411 133.472C461.525 131.245 458.322 126.345 458.322 120.441C458.322 116.875 460.82 114.895 463.275 113.763C465.064 112.938 467.18 112.413 468.756 112.022C469.285 111.891 469.754 111.774 470.129 111.667C471.275 111.338 472.897 111.37 474.486 111.508C476.141 111.651 478.002 111.934 479.756 112.243C481.466 112.544 483.102 112.874 484.372 113.13L484.378 113.131L484.381 113.132L484.475 113.151C484.698 113.196 484.909 113.238 485.106 113.278L485.398 113.336C485.503 113.357 485.603 113.376 485.698 113.395C485.83 113.421 485.953 113.444 486.066 113.465C486.342 113.517 486.501 113.542 486.576 113.554L486.619 113.56C486.626 113.561 486.63 113.562 486.632 113.563C486.634 113.564 486.63 113.564 486.622 113.564C486.975 113.564 487.313 113.686 487.442 113.733L487.45 113.735C487.651 113.808 487.882 113.905 488.126 114.015C488.619 114.238 489.249 114.55 489.965 114.924C491.401 115.675 493.242 116.706 495.144 117.845C497.044 118.983 499.023 120.238 500.727 121.438C502.4 122.614 503.917 123.811 504.807 124.831C505.562 125.697 506.661 126.781 507.998 128.101L508.27 128.37C509.71 129.791 511.364 131.434 513.008 133.238C516.256 136.804 519.583 141.124 521.156 145.803C522.48 148.8 524.319 153.633 525.593 158.529C526.235 160.996 526.742 163.512 526.96 165.836C527.175 168.136 527.121 170.369 526.548 172.208C525.951 174.125 525.667 175.963 525.371 177.88C524.544 183.225 523.624 189.174 515.56 199.101C510.174 205.733 506.429 209.631 502.385 212.673C498.379 215.688 494.13 217.819 487.879 220.954L487.878 220.954L487.782 221.002C474.864 227.481 462.415 229.973 447.056 228.979C431.877 227.997 423.494 227.007 406.812 222.578C400.41 220.878 396.265 219.475 393.663 218.386C393.461 218.301 393.267 218.218 393.081 218.136C392.909 218.061 392.744 217.986 392.586 217.913C392.997 222.049 392.93 227.15 391.899 232.133C390.571 238.548 387.588 245.001 381.695 248.784C379.18 250.399 377.238 251.777 375.504 253.008L375.052 253.329C374.866 253.461 374.683 253.591 374.501 253.719C372.512 255.124 370.706 256.35 368.538 257.469C364.196 259.711 358.537 261.453 347.059 263.658L346.934 263.682L346.808 263.685C339.149 263.848 320.757 263.302 308.824 259.711C305.221 258.627 300.519 257.508 295.303 256.267L295.293 256.264L295.29 256.264L295.282 256.262C290.093 255.027 284.422 253.678 278.945 252.143C273.465 250.608 268.131 248.874 263.625 246.86C259.445 244.992 255.825 242.817 253.493 240.214C253.477 240.623 253.44 241.074 253.358 241.546C253.054 243.298 252.15 245.265 249.776 246.735C247.487 248.152 243.967 249.022 238.602 249.022C233.283 249.022 229.732 248.258 227.538 246.873C226.409 246.161 225.614 245.267 225.164 244.223C224.935 243.691 224.809 243.151 224.761 242.616C223.947 243.622 223.08 244.622 222.157 245.612C211.478 257.072 198.7 263.91 187.556 267.699C176.793 271.357 167.378 272.228 162.73 271.548L162.685 271.558C162.485 271.605 162.249 271.644 162.001 271.677C161.499 271.744 160.823 271.805 160.011 271.858C158.382 271.965 156.124 272.044 153.447 272.063C148.092 272.101 141.003 271.902 133.814 271.193C126.642 270.486 119.288 269.264 113.444 267.229C110.522 266.212 107.908 264.967 105.871 263.431C104.432 262.346 103.239 261.082 102.451 259.615C95.0204 264.537 87.3448 265.507 80.6133 265.273C77.1055 265.15 73.8291 264.699 70.9993 264.309L70.9982 264.309L70.7995 264.282C67.8608 263.878 65.5322 263.571 63.7659 263.682L63.1845 263.719C59.5614 263.948 56.2605 264.157 52.7785 263.605C49.0662 263.018 45.2206 261.584 40.455 258.564C32.9146 253.787 23.177 245.032 19.2655 241.272L19.2027 241.211L19.1473 241.144C14.4924 235.492 11.7684 231.509 10.2779 226.439C8.80644 221.433 8.57243 215.475 8.57243 205.976C8.57243 197.968 13.0968 189.813 18.3237 183.007C23.5887 176.152 29.7641 170.414 33.4518 167.208L35.4201 169.472C31.7986 172.621 25.7924 178.208 20.7029 184.835C15.5752 191.511 11.5724 198.997 11.5724 205.976C11.5724 215.539 11.8257 221.067 13.1561 225.593C14.4621 230.035 16.8404 233.618 21.4074 239.169C25.3316 242.935 34.8267 251.447 42.0605 256.03C46.5529 258.876 50.0163 260.131 53.2477 260.642C56.3935 261.141 59.3875 260.952 63.1114 260.717L63.5783 260.688C65.7103 260.554 68.376 260.92 71.2085 261.31L71.3624 261.331C74.2176 261.724 77.3644 262.157 80.7179 262.274C87.3727 262.507 94.7403 261.488 101.792 256.425C99.3952 254.892 96.0199 252.914 92.6753 251.314C90.7519 250.394 88.8726 249.617 87.216 249.117C85.5149 248.605 84.2281 248.443 83.4084 248.579L82.9174 245.619C84.4366 245.367 86.2682 245.698 88.0816 246.245C89.9395 246.805 91.9705 247.652 93.9695 248.608C97.9698 250.521 101.978 252.936 104.458 254.581L104.121 255.088L104.594 256.924C104.97 258.387 105.984 259.759 107.678 261.036C109.375 262.316 111.673 263.436 114.43 264.396C119.946 266.317 127.027 267.509 134.108 268.207C141.171 268.904 148.152 269.101 153.425 269.063C156.062 269.044 158.259 268.966 159.816 268.865C160.597 268.814 161.198 268.758 161.604 268.704C161.678 268.694 161.741 268.684 161.795 268.676L162.078 268.392L162.849 268.528C166.643 269.2 175.748 268.544 186.59 264.858C197.373 261.193 209.69 254.59 219.963 243.567C236.24 226.1 233.962 205.634 230.87 197.724L230.804 197.555L230.78 197.376C230.474 195.07 229.568 191.488 227.875 188.331C226.169 185.148 223.821 182.676 220.75 182.027L221.37 179.092C225.706 180.008 228.637 183.401 230.519 186.914C232.373 190.372 233.365 194.217 233.73 196.801C236.353 203.668 238.264 218.287 230.891 233.104L230.913 233.092C231.256 232.9 231.685 232.643 232.181 232.337C232.449 232.172 232.731 231.997 233.024 231.813C233.41 231.571 233.815 231.316 234.232 231.052L234.245 231.044C234.689 230.763 235.148 230.474 235.612 230.182C236.831 229.418 238.079 228.651 239.123 228.072C239.643 227.784 240.139 227.527 240.571 227.338C240.887 227.2 241.363 227.007 241.841 226.967C241.876 226.935 241.916 226.894 241.96 226.841C242.045 226.74 242.146 226.599 242.257 226.412C242.537 225.94 242.771 225.361 242.923 224.9C242.535 221.438 242.487 216.353 242.853 211.405C243.227 206.352 244.049 201.185 245.525 198.012C248.587 191.43 253.55 185.618 258.271 180.09L258.271 180.089L258.277 180.083L258.637 179.661C258.868 179.391 259.097 179.122 259.325 178.854C259.672 178.447 260.016 178.042 260.357 177.637L260.478 177.494L260.63 177.385C264.097 174.901 270.002 171.134 276.49 168.128C282.921 165.149 290.178 162.796 296.254 163.427L295.945 166.411C290.717 165.868 284.086 167.915 277.751 170.85C271.566 173.715 265.903 177.312 262.528 179.716C262.308 179.977 262.087 180.237 261.867 180.497L261.563 180.855C261.385 181.064 261.206 181.273 261.028 181.482L260.53 182.066C255.786 187.627 251.121 193.097 248.245 199.277C247.018 201.916 246.216 206.605 245.845 211.626C245.477 216.598 245.547 221.641 245.938 224.857L245.975 225.158L245.892 225.449C245.706 226.102 245.345 227.086 244.838 227.941C244.586 228.367 244.258 228.829 243.843 229.201C243.45 229.555 242.862 229.929 242.107 229.958L242.092 229.963C242.053 229.975 241.952 230.008 241.772 230.087C241.465 230.221 241.063 230.426 240.578 230.695C239.611 231.232 238.423 231.961 237.206 232.724C236.763 233.002 236.314 233.286 235.873 233.564C235.12 234.039 234.391 234.5 233.754 234.892C233.246 235.205 232.776 235.486 232.381 235.709C232.05 235.894 231.685 236.088 231.37 236.205C231.354 236.215 231.331 236.23 231.301 236.252C231.197 236.328 231.051 236.446 230.871 236.61C230.512 236.936 230.07 237.396 229.63 237.944C228.721 239.077 227.965 240.404 227.78 241.583C227.692 242.145 227.742 242.624 227.919 243.036C228.094 243.442 228.441 243.896 229.139 244.336C230.599 245.258 233.445 246.022 238.602 246.022C243.713 246.022 246.588 245.181 248.197 244.184C249.721 243.241 250.218 242.092 250.402 241.034C250.499 240.471 250.509 239.918 250.502 239.38C250.501 239.303 250.499 239.22 250.498 239.134C250.494 238.95 250.491 238.756 250.491 238.592C250.492 238.356 250.5 238.04 250.563 237.736C250.618 237.466 250.777 236.882 251.342 236.49C251.956 236.062 252.611 236.152 252.977 236.256C253.346 236.362 253.697 236.554 254.004 236.748C254.329 236.952 254.697 237.217 255.111 237.536L255.251 237.644L255.362 237.782C257.205 240.066 260.502 242.178 264.849 244.121C269.159 246.048 274.332 247.735 279.754 249.254C285.172 250.773 290.793 252.11 295.997 253.348L296.041 253.359C301.209 254.588 305.992 255.726 309.688 256.838C321.08 260.267 338.937 260.841 346.617 260.688C357.955 258.506 363.235 256.831 367.162 254.804C369.136 253.784 370.802 252.659 372.771 251.268C373.091 251.042 373.419 250.809 373.757 250.57C375.493 249.337 377.495 247.915 380.074 246.26C385.015 243.087 387.716 237.538 388.961 231.525C390.197 225.557 389.945 219.362 389.183 215.196C389.151 215.071 389.13 214.929 389.13 214.774L391.525 214.55L391.527 214.55L392.1 214.497L392.095 214.479L392.09 214.456C392.081 214.422 392.071 214.391 392.062 214.363C391.973 214.109 391.843 214.022 391.929 214.101C391.985 214.153 392.112 214.256 392.349 214.405C392.821 214.703 393.605 215.11 394.821 215.619C397.247 216.634 401.247 217.996 407.582 219.678C424.034 224.047 432.218 225.012 447.25 225.985C462.101 226.946 474.016 224.55 486.437 218.321C492.802 215.128 496.813 213.112 500.582 210.276C504.335 207.453 507.899 203.775 513.232 197.21C520.752 187.953 521.519 182.964 522.314 177.792L522.315 177.788C522.628 175.75 522.946 173.683 523.684 171.316C524.085 170.026 524.173 168.251 523.973 166.116C523.775 164.005 523.307 161.657 522.69 159.285C521.455 154.539 519.658 149.827 518.385 146.953L518.355 146.887L518.333 146.819C516.973 142.727 513.982 138.763 510.79 135.259C509.205 133.519 507.601 131.924 506.163 130.504L505.853 130.199C504.557 128.92 503.379 127.758 502.546 126.803C501.914 126.078 500.66 125.058 499.001 123.891C497.375 122.748 495.463 121.533 493.602 120.419C491.743 119.305 489.952 118.303 488.575 117.583C487.884 117.222 487.311 116.939 486.893 116.75C486.682 116.655 486.53 116.593 486.431 116.557L486.423 116.554C486.146 116.531 485.801 116.468 485.516 116.414C485.309 116.376 485.072 116.33 484.811 116.278C484.527 116.222 484.215 116.159 483.881 116.091L483.798 116.075L483.794 116.074L483.79 116.073L483.782 116.071L483.781 116.071C482.507 115.814 480.906 115.491 479.236 115.197C477.517 114.895 475.754 114.628 474.227 114.496C472.633 114.359 471.514 114.391 470.955 114.551C470.403 114.709 469.811 114.856 469.198 115.008C467.683 115.384 466.039 115.792 464.531 116.487C462.479 117.433 461.322 118.63 461.322 120.441C461.322 125.289 463.966 129.187 466.903 130.87C467.418 131.165 468.411 131.376 469.857 131.428C471.244 131.478 472.827 131.378 474.354 131.228C475.502 131.115 476.581 130.978 477.507 130.86L477.512 130.86C477.818 130.821 478.107 130.784 478.376 130.751C478.9 130.687 479.381 130.633 479.739 130.613C479.904 130.604 480.128 130.597 480.343 130.622C480.434 130.633 480.66 130.664 480.905 130.781C480.967 130.811 481.058 130.861 481.158 130.935C481.192 130.946 481.231 130.958 481.276 130.971C481.342 130.99 481.417 131.012 481.5 131.037L481.522 131.043C481.861 131.142 482.329 131.278 482.872 131.456C484.271 131.916 486.232 132.674 488.478 133.994C492.985 136.642 498.551 141.499 503.07 150.564C510.323 165.116 507.467 179.215 505.044 184.597L505.003 184.689L504.949 184.774C501.259 190.698 498.359 194.392 494.775 197.409C491.218 200.403 487.052 202.673 480.981 205.84C475.883 208.499 467.985 209.856 460.279 210.392C452.667 210.922 444.992 210.666 439.905 209.944C439.275 210.063 438.48 210.083 437.654 210.06C436.61 210.03 435.333 209.924 433.898 209.748C431.027 209.397 427.453 208.76 423.718 207.862C416.332 206.086 407.986 203.215 403.311 199.306C401.296 197.622 399.367 195.941 397.479 194.295L397.473 194.29C395.117 192.236 392.825 190.239 390.514 188.364C386.403 185.03 382.555 182.363 378.894 180.986L378.493 180.835L378.232 180.495C377.824 179.963 377.467 179.727 377.198 179.622C376.938 179.521 376.659 179.502 376.328 179.577C375.61 179.74 374.749 180.322 373.871 181.21C373.345 181.9 372.858 182.581 372.418 183.299C371.893 184.155 371.481 184.766 371.2 185.056C371.179 185.077 371.151 185.105 371.116 185.137C371.075 185.175 371.024 185.219 370.965 185.262C370.934 185.285 370.588 185.559 370.069 185.566C369.724 185.57 369.31 185.453 368.981 185.124C368.688 184.832 368.595 184.504 368.562 184.33C368.504 184.018 368.559 183.762 368.573 183.699L368.574 183.696C368.637 183.406 368.788 183.11 368.87 182.954C369.289 182.146 370.291 180.6 371.596 179.245C371.914 178.83 372.231 178.428 372.545 178.029L372.557 178.013C374.22 175.902 375.799 173.897 376.925 170.846C378.268 167.206 378.98 161.975 377.934 153.369C375.508 133.422 371.651 121.982 366.014 113.972C365.035 112.581 363.655 110.267 361.928 107.372L361.924 107.366L361.92 107.359C361.004 105.823 359.99 104.123 358.887 102.311C355.662 97.0146 351.593 90.6124 346.729 84.0661C336.972 70.9362 324.137 57.3936 308.679 50.9529C292.929 44.3903 285.277 43.6397 281.429 43.9753C279.876 44.1108 278.94 44.4156 278.181 44.6625C278.008 44.7188 277.844 44.7721 277.684 44.8197C277.307 44.9321 276.597 45.1367 275.849 44.8781C275.17 44.6431 274.745 44.1367 274.456 43.6783C274.373 43.6676 274.235 43.6595 274.022 43.6699C273.357 43.7025 272.375 43.9097 271.092 44.3101C268.551 45.1029 265.197 46.5326 261.577 48.237C255.913 50.9045 249.762 54.1657 245.323 56.5193L245.288 56.5379C244.205 57.1124 243.224 57.6324 242.378 58.0759C238.272 63.3547 231.492 68.6047 221.685 69.1206ZM274.567 43.7022C274.566 43.7027 274.56 43.7008 274.548 43.6953C274.562 43.6991 274.567 43.7018 274.567 43.7022ZM486.352 116.532C486.345 116.53 486.35 116.53 486.372 116.537C486.362 116.535 486.356 116.533 486.352 116.532ZM241.794 227.006C241.789 227.009 241.788 227.01 241.789 227.009L241.794 227.006ZM24.5311 74.9516C19.0149 76.955 13.2636 80.42 9.35942 86.0986L9.30583 86.1766L9.24284 86.2472C6.75639 89.0347 1.77129 98.1262 3.27873 110.979C4.01152 117.227 7.06841 122.32 10.6585 126.176C12.2088 127.84 13.8462 129.261 15.4147 130.43L14.3892 128.896L21.6983 124.008L22.81 125.671L15.5472 130.528C17.5523 132.008 19.4368 133.075 20.8718 133.714C23.09 134.539 26.2868 135.624 29.5256 136.54C23.7364 121.653 22.4312 102.853 23.1906 87.1672C23.1938 83.0289 23.7374 78.8044 24.5311 74.9516ZM94.6923 107.128C84.7299 102.317 77.917 105.832 75.9416 107.814L73.8169 105.696C76.7143 102.79 84.9092 99.0715 95.997 104.427L94.6923 107.128ZM92.8896 212.873C101.046 209.951 112.573 209.845 123.515 212.838C129.216 214.398 134.178 218.13 137.766 221.357C139.49 222.908 140.93 224.372 141.994 225.456L141.996 225.458L142.142 225.606C142.691 226.164 143.107 226.584 143.413 226.866C143.569 227.01 143.659 227.082 143.699 227.11C143.719 227.125 143.694 227.104 143.632 227.075C143.594 227.056 143.394 226.96 143.097 226.96V229.96C142.74 229.96 142.464 229.841 142.336 229.78C142.186 229.708 142.057 229.624 141.961 229.555C141.767 229.417 141.568 229.245 141.383 229.075C141.009 228.731 140.534 228.25 140.002 227.709L139.866 227.57C138.799 226.484 137.415 225.076 135.759 223.587C132.282 220.46 127.742 217.105 122.723 215.732C112.225 212.86 101.347 213.03 93.9014 215.697L93.3862 215.882L92.9924 216.022L92.3237 216.26C89.8686 217.134 88.3864 217.662 86.7697 218.399C84.8404 219.279 82.7101 220.463 78.5652 222.909L78.1243 223.169L77.6163 223.105C75.4931 222.839 69.3595 223.58 63.867 229.406C62.3498 231.606 61.9721 233.165 61.8769 234.216C61.8315 234.717 61.8465 235.129 61.8617 235.548L61.8669 235.694C61.8744 235.912 61.882 236.185 61.8613 236.449C61.8404 236.716 61.7848 237.075 61.6037 237.438C61.4303 237.786 61.2843 237.991 61.1592 238.167C60.9323 238.485 60.7741 238.708 60.6462 239.51C60.4515 240.731 60.5124 243.057 61.7121 247.63C61.9592 248.571 62.3414 249.19 62.7657 249.607C63.1904 250.024 63.7277 250.308 64.3903 250.472C65.7692 250.814 67.5816 250.606 69.5353 250.05C71.4526 249.505 73.325 248.678 74.735 247.974C75.4356 247.625 76.0124 247.311 76.4118 247.085L76.5605 247.001L76.637 246.957C76.7005 246.92 76.7566 246.888 76.805 246.859C76.839 246.806 76.8876 246.727 76.9524 246.611C77.0213 246.487 77.0944 246.349 77.1821 246.183L77.193 246.162C77.2756 246.006 77.3686 245.83 77.4694 245.647C77.8918 244.879 78.4933 243.898 79.4434 243.02C81.4412 241.174 84.5903 240.12 89.7924 241.163C92.1491 241.636 94.1247 241.844 95.8997 241.978C96.454 242.02 97.0035 242.056 97.5455 242.091C98.6994 242.166 99.8197 242.239 100.884 242.367C104.186 242.764 107.238 243.717 111.352 246.812C115.325 249.801 117.725 252.198 119.149 253.886C119.861 254.731 120.33 255.398 120.628 255.874C120.712 256.006 120.782 256.124 120.84 256.227C120.864 256.268 120.885 256.307 120.905 256.343C120.924 256.378 120.942 256.411 120.958 256.441C120.995 256.511 121.023 256.568 121.044 256.613C121.055 256.635 121.064 256.654 121.071 256.67L121.08 256.691L121.084 256.7L121.086 256.704L121.087 256.706C121.087 256.707 121.087 256.708 119.708 257.297C118.329 257.887 118.329 257.887 118.329 257.888L118.33 257.89L118.331 257.893L118.334 257.898L118.335 257.902C118.333 257.897 118.327 257.885 118.318 257.867L118.302 257.837C118.265 257.766 118.197 257.643 118.087 257.468C117.868 257.119 117.484 256.565 116.856 255.821C115.6 254.332 113.371 252.086 109.548 249.209C105.865 246.438 103.314 245.681 100.525 245.345C99.5431 245.227 98.5611 245.164 97.46 245.092L97.4582 245.092C96.8988 245.056 96.3089 245.018 95.6728 244.97C93.8237 244.83 91.7183 244.61 89.2023 244.105C84.6591 243.193 82.5821 244.204 81.4797 245.223C80.8794 245.778 80.4623 246.43 80.0982 247.093C80.0088 247.255 79.9251 247.413 79.8398 247.575L79.8376 247.579L79.8346 247.585L79.8295 247.595L79.8222 247.609C79.7719 247.703 79.7204 247.801 79.6684 247.897L79.6296 247.969C79.6105 248.004 79.5914 248.038 79.5723 248.072C79.4109 248.362 79.1794 248.755 78.8652 249.07L78.7398 249.195L78.5885 249.288L77.8029 248.011C78.5885 249.288 78.5882 249.289 78.5877 249.289L78.5865 249.29L78.5832 249.292L78.5723 249.298L78.5343 249.321L78.469 249.36L78.3959 249.404C78.2768 249.474 78.1047 249.575 77.8864 249.698C77.4501 249.944 76.8278 250.283 76.0743 250.659C74.5759 251.406 72.5197 252.32 70.3561 252.936C68.2289 253.541 65.8082 253.914 63.6696 253.384C62.5734 253.113 61.5309 252.599 60.6633 251.747C59.7951 250.894 59.1724 249.771 58.8103 248.391C57.5737 243.677 57.391 240.872 57.6836 239.037C57.9344 237.465 58.6818 236.407 58.8736 236.157C58.876 236.081 58.8747 235.971 58.8687 235.797L58.8636 235.659C58.8479 235.243 58.8255 234.647 58.8892 233.945C59.0363 232.321 59.6244 230.242 61.4675 227.601L61.5286 227.514L61.6017 227.435C67.4502 221.178 74.1547 219.877 77.457 220.08C81.3327 217.797 83.5055 216.59 85.5251 215.67C87.2684 214.875 88.8908 214.297 91.3472 213.423L91.4107 213.401C91.8721 213.236 92.3631 213.062 92.8896 212.873ZM41.4118 97.7466L58.9535 83.0834L57.6708 81.5489L40.1291 96.2121L41.4118 97.7466ZM16.0336 125.15L23.8299 119.285L22.6275 117.686L14.8312 123.552L16.0336 125.15ZM91.9338 130.705C91.9338 132.324 90.8429 133.637 89.4975 133.637C88.1519 133.637 87.0611 132.324 87.0611 130.705C87.0611 129.085 88.1519 127.772 89.4975 127.772C90.8429 127.772 91.9338 129.085 91.9338 130.705ZM82.1884 134.126C81.2138 133.149 78.4852 131.194 75.3666 131.194C71.4684 131.194 68.356 133.527 67.5704 135.104C66.5957 137.059 66.5957 137.548 67.5704 139.991C68.22 141.458 70.299 144.293 73.4175 143.902C77.3157 143.413 80.7266 140.48 80.7266 139.503C81.7011 139.014 82.6757 136.081 82.1884 134.126ZM49.3434 131.653L46.8532 133.293L49.4533 131.764L49.3434 131.653ZM112.849 130.767L113.815 131.737L114.691 132.615H115.81L116.518 135.728L124.357 132.746L125.779 136.484L120.73 138.405C121.063 138.547 121.397 138.686 121.729 138.821C124.103 139.785 126.408 140.571 128.278 141.179C128.654 141.301 129.016 141.417 129.361 141.527L129.97 141.721C131.01 142.051 131.828 142.31 132.262 142.485C133.355 142.923 138.121 144.132 143.611 144.616C146.341 144.857 149.209 144.914 151.856 144.619C154.513 144.322 156.874 143.676 158.646 142.566C166.305 137.764 171.425 131.612 172.814 124.644C173.549 120.961 173.902 119.185 174.078 117.293C174.256 115.395 174.257 113.373 174.257 109.199C174.257 105.128 173.78 101.582 172.488 97.9897C171.815 96.1156 170.914 94.2153 169.73 92.2109L161.277 99.2157L160.001 97.6757L168.665 90.4963C167.802 89.1727 166.818 87.7975 165.696 86.3503C163.094 82.9946 159.178 80.3063 155.273 78.3061C151.38 76.3115 147.582 75.0435 145.301 74.4908C142.628 73.8602 137.92 73.2339 132.587 73.4421C127.249 73.6505 121.358 74.6921 116.271 77.338C111.297 79.9252 107.724 84.9834 105.283 90.4006C102.85 95.8012 101.607 101.417 101.211 104.912L101.209 104.926L101.208 104.939C101.08 105.841 101.08 106.145 101.113 107.149L101.122 107.408C101.158 108.463 101.216 110.167 101.217 113.488C102.172 117.772 103.117 120.467 104.393 122.91C105.578 125.179 107.057 127.252 109.168 130.212L109.279 130.368L109.803 131.102C109.982 131.353 110.177 131.602 110.389 131.847L111.595 131.317L112.849 130.767ZM96.0027 138.16L108.487 132.681C108.379 132.543 108.274 132.404 108.174 132.262C107.95 131.949 107.733 131.644 107.521 131.347C105.435 128.424 103.872 126.235 102.62 123.836C101.226 121.167 100.227 118.266 99.241 113.814L99.2173 113.707V113.598C99.2173 110.237 99.1592 108.531 99.1232 107.474L99.1144 107.216C99.079 106.147 99.0785 105.718 99.2253 104.674C99.643 100.999 100.934 95.1854 103.46 89.5791C105.981 83.9826 109.798 78.4507 115.349 75.5637C120.787 72.7352 126.997 71.6588 132.509 71.4436C138.023 71.2283 142.913 71.8723 145.763 72.5449L145.769 72.5462C148.198 73.1344 152.146 74.4566 156.185 76.5262C160.216 78.591 164.421 81.4421 167.276 85.1248C168.373 86.5392 169.349 87.8958 170.214 89.2121L171.208 88.389L172.484 89.9289L171.289 90.9193C171.894 91.9276 172.434 92.9158 172.914 93.8924L194.835 84.3321L195.635 86.1654L173.745 95.7119C173.971 96.2471 174.179 96.7803 174.371 97.3131C175.759 101.174 176.257 104.96 176.257 109.199V109.265C176.257 113.357 176.257 115.477 176.07 117.479C175.882 119.484 175.508 121.363 174.789 124.967L174.788 124.971L174.788 124.975L174.776 125.035C173.241 132.73 167.642 139.286 159.708 144.26C157.581 145.594 154.887 146.292 152.078 146.606C149.258 146.921 146.248 146.857 143.436 146.609C137.84 146.115 132.861 144.88 131.518 144.341C131.152 144.194 130.461 143.975 129.5 143.67L129.498 143.67C128.966 143.501 128.35 143.305 127.66 143.081C125.769 142.467 123.414 141.664 120.976 140.674C120.018 140.284 119.044 139.865 118.078 139.415L111.648 141.861L108.937 142.892V141.041L105.054 141.94L104.025 139.008L97.6102 141.823L96.0027 138.16ZM63.3603 85.02L55.0767 92.3516L53.7513 90.854L62.0348 83.5224L63.3603 85.02ZM78.5806 159.339L76.3412 149.615L79.2647 148.942L81.3202 157.867C82.9583 158.029 84.4737 158.609 85.8272 159.208C86.33 159.43 86.8042 159.651 87.2603 159.863C88.4397 160.412 89.4976 160.904 90.6126 161.22C91.5813 161.495 92.5217 161.807 93.3847 162.096L93.5712 162.159L93.5745 162.16C94.3749 162.428 95.094 162.669 95.7498 162.858C96.4644 163.063 97.0174 163.18 97.4349 163.208C97.803 163.232 97.9267 163.178 97.9344 163.175L98.3045 162.93H98.3068C98.3655 162.859 98.4358 162.767 98.5163 162.652C98.839 162.192 99.2049 161.543 99.5096 160.875C99.8233 160.187 100.018 159.6 100.072 159.25C100.076 159.226 100.078 159.206 100.08 159.19C100.084 159.16 100.085 159.142 100.085 159.133C100.085 159.153 100.092 159.219 100.125 159.313C100.17 159.441 100.278 159.656 100.515 159.833C100.761 160.016 101.018 160.065 101.192 160.065V157.065C101.546 157.065 101.949 157.16 102.31 157.429C102.662 157.692 102.855 158.032 102.956 158.32C103.137 158.838 103.09 159.369 103.036 159.713C102.919 160.463 102.594 161.342 102.239 162.12C101.874 162.919 101.421 163.735 100.972 164.376C100.751 164.691 100.498 165.009 100.228 165.266C100.093 165.394 99.9196 165.54 99.7118 165.661C99.6121 165.719 99.4758 165.788 99.309 165.842C98.6235 166.195 97.8732 166.244 97.2352 166.201C96.4958 166.152 95.699 165.965 94.9212 165.741C94.1979 165.533 93.4161 165.271 92.6326 165.008L92.4312 164.941C91.5669 164.651 90.6875 164.359 89.7947 164.107C88.4294 163.72 87.0472 163.076 85.7996 162.495C85.388 162.303 84.9911 162.118 84.6143 161.952C83.4197 161.424 82.341 161.031 81.2997 160.885C81.1308 161.491 80.8691 162.205 80.431 162.886C79.5616 164.238 78.0957 165.365 75.6894 165.895C74.7044 166.112 74.0245 166.353 73.4894 166.563C73.3953 166.6 73.2946 166.641 73.1893 166.684C72.7793 166.851 72.2984 167.047 71.8562 167.145C70.3851 167.471 69.1442 166.868 67.2674 165.705L67.1225 165.615L67.0014 165.495C66.3103 164.81 65.9313 164.043 65.8786 163.224C65.8291 162.455 66.0849 161.837 66.2371 161.5C66.292 161.379 66.3207 161.319 66.3404 161.278C66.3567 161.244 66.3669 161.223 66.3804 161.191C66.393 161.151 66.3999 161.143 66.3857 161.178L66.3804 161.191C66.3564 161.268 66.3114 161.464 66.3526 161.712C66.393 161.955 66.5069 162.203 66.7004 162.405C66.8769 162.589 67.0583 162.67 67.1503 162.704V159.735C67.4296 159.735 67.8111 159.752 68.1744 159.884C68.3732 159.956 68.6335 160.086 68.8652 160.328C69.1138 160.587 69.2592 160.902 69.3122 161.22C69.3979 161.737 69.2203 162.172 69.1679 162.3L69.1645 162.309C69.1224 162.412 69.0424 162.583 68.9986 162.676L68.9709 162.736C68.8696 162.96 68.8718 163.021 68.8724 163.031C68.8725 163.032 68.8727 163.035 68.8742 163.04C68.875 163.043 68.8766 163.049 68.8798 163.057C68.8824 163.064 68.8859 163.072 68.891 163.082C68.907 163.115 68.9415 163.174 69.0124 163.257C70.7576 164.323 71.0488 164.254 71.1912 164.22L71.2078 164.216C71.29 164.198 71.3688 164.174 71.4628 164.14C71.5146 164.121 71.571 164.1 71.6351 164.074C71.7018 164.048 71.7769 164.017 71.8638 163.982C72.0044 163.925 72.1759 163.856 72.3932 163.771C73.0336 163.519 73.8676 163.225 75.0439 162.965C76.7634 162.586 77.513 161.877 77.9076 161.263C78.2975 160.657 78.4306 160.038 78.5796 159.343L78.5806 159.339ZM162.917 165.863C166.777 164.517 175.903 159.859 181.905 151.832L180.303 150.634C174.61 158.248 165.871 162.715 162.258 163.975L162.917 165.863ZM140.221 105.156L162.635 90.9817L161.566 89.2913L139.152 103.466L140.221 105.156ZM120.985 112.898C116.774 110.512 114.261 112.062 113.647 112.781L112.126 111.482C113.452 109.93 117.118 108.317 122.162 111.268L122.337 111.37L122.458 111.533C123.116 112.412 124.285 113.501 125.612 113.976C126.259 114.207 126.921 114.285 127.581 114.149C128.236 114.013 128.962 113.652 129.72 112.892L131.136 114.304C130.14 115.303 129.075 115.882 127.985 116.107C126.9 116.332 125.862 116.189 124.938 115.859C123.216 115.243 121.812 113.948 120.985 112.898ZM59.9126 112.329C58.6097 111.283 56.4308 110.008 54.0992 109.629C52.9206 109.438 51.6635 109.47 50.4565 109.917C49.2375 110.368 48.1349 111.219 47.2468 112.555C46.4435 113.764 45.4219 114.168 44.597 114.126C43.7591 114.084 43.0125 113.588 42.6739 112.738L40.8162 113.479C41.4521 115.074 42.8982 116.044 44.4968 116.124C46.1082 116.205 47.7665 115.387 48.9124 113.662C49.5834 112.653 50.3569 112.086 51.1509 111.792C51.957 111.494 52.8499 111.452 53.7787 111.603C55.6619 111.909 57.5274 112.979 58.6608 113.889L59.9126 112.329Z" transform="translate(527.076) scale(-1 1)" fill="#5F5AA2"/>
</svg>
